<svg xmlns="http://www.w3.org/2000/svg" viewBox="0 0 300 80" width="300" height="80" role="img" aria-label="AOSC Labs">
  <g transform="translate(8,8)">
    <g stroke="#2F4F4F" stroke-width="1.6" fill="none" stroke-linecap="round">
      <path d="M6 24 H14 M6 40 H12 M50 24 H58 M52 40 H58 M20 8 V4 M44 8 V4 M24 58 V62 M40 58 V62"/>
    </g>
    <g fill="#2F4F4F">
      <circle cx="6" cy="24" r="1.8"/><circle cx="6" cy="40" r="1.8"/>
      <circle cx="58" cy="24" r="1.8"/><circle cx="58" cy="40" r="1.8"/>
      <circle cx="20" cy="4" r="1.8"/><circle cx="44" cy="4" r="1.8"/>
      <circle cx="24" cy="62" r="1.8"/><circle cx="40" cy="62" r="1.8"/>
    </g>
    <path d="M22 27 V21 C22 15.5 26.5 11 32 11 C37.5 11 42 15.5 42 21 V27"
          fill="none" stroke="#8B0000" stroke-width="3" stroke-linecap="round"/>
    <rect x="17" y="27" width="30" height="24" rx="4" fill="#1A1A1A" stroke="#FF1744" stroke-width="2.4"/>
    <circle cx="32" cy="36" r="3.2" fill="none" stroke="#FF1744" stroke-width="2"/>
    <path d="M32 39 V45" stroke="#FF1744" stroke-width="2.2" stroke-linecap="round"/>
    <circle cx="32" cy="36" r="1.2" fill="#E8E8E8"/>
  </g>
  <text x="82" y="42" font-family="Inter, -apple-system, Segoe UI, Roboto, sans-serif" font-size="30" font-weight="800" letter-spacing="4" fill="#E8E8E8">AOSC</text>
  <text x="83" y="62" font-family="Inter, -apple-system, Segoe UI, Roboto, sans-serif" font-size="14" font-weight="600" letter-spacing="9.5" fill="#FF1744">LABS</text>
</svg>
